<svg width="18" height="18" viewBox="0 0 18 18" fill="none" xmlns="http://www.w3.org/2000/svg">
<path fillRule="evenodd" clipRule="evenodd" d="M10.8914 0.86972C10.7103 0.843755 10.5283 0.897308 10.3836 1.01253C10.2348 1.12937 10.1418 1.29814 10.1216 1.4872C10.0787 1.86938 10.3545 2.21504 10.7361 2.25804C13.3683 2.55177 15.4141 4.6022 15.7101 7.24253C15.7497 7.5963 16.0465 7.86325 16.4007 7.86325C16.4273 7.86325 16.4532 7.86163 16.4799 7.85838C16.6651 7.8381 16.83 7.74641 16.9465 7.60036C17.0621 7.4543 17.1147 7.27255 17.0937 7.08673C16.7249 3.79241 14.1753 1.23567 10.8914 0.86972ZM10.9413 3.69693C10.5548 3.62553 10.1998 3.8722 10.1262 4.2495C10.0527 4.62681 10.3001 4.99519 10.6761 5.06903C11.8082 5.28973 12.6823 6.16605 12.9039 7.30202V7.30283C12.967 7.62983 13.2549 7.86757 13.5864 7.86757C13.6309 7.86757 13.6754 7.86352 13.7206 7.8554C14.0967 7.77994 14.3441 7.41237 14.2705 7.03426C13.9398 5.3376 12.6338 4.02718 10.9413 3.69693ZM12.227 11.4923C12.5935 11.281 13.0076 11.0422 13.5298 11.1533C14.0029 11.2531 15.6153 12.5619 16.0568 13.0155C16.3463 13.3125 16.5073 13.6192 16.5323 13.9259C16.576 15.1292 14.9409 16.503 14.6433 16.6742C14.2479 16.959 13.7878 17.1026 13.2711 17.1026C12.743 17.1026 12.1544 16.9525 11.5123 16.6531C8.02868 15.199 2.70703 9.98247 1.3 6.52587C0.71616 5.23898 0.712117 4.17765 1.29029 3.38004C1.52076 3.00598 2.83479 1.44239 4.01136 1.49189C4.3243 1.51867 4.62835 1.67933 4.92674 1.97143C5.37796 2.41365 6.65399 4.03079 6.75265 4.50546C6.86181 5.03288 6.62246 5.45238 6.40978 5.82076C6.36442 5.89995 6.3033 5.99392 6.23635 6.09688C5.98223 6.48762 5.644 7.0077 5.76368 7.33971C6.62165 9.44613 8.60362 11.284 10.7109 12.1473C11.0368 12.2658 11.5566 11.9251 11.9461 11.6699C12.0476 11.6034 12.1402 11.5427 12.2182 11.4974L12.227 11.4923Z" fill="#0099FF"/>
</svg>
